<svg width="229" height="41" viewBox="0 0 229 41" fill="none" xmlns="http://www.w3.org/2000/svg">
<path d="M36.2042 38.3612C35.781 38.5496 35.3962 38.7757 34.973 38.9641C32.1643 40.0569 29.2402 40.4714 26.2391 40.0946C24.5847 39.9062 23.0072 39.4163 21.6221 38.5496C20.6217 37.9467 20.6217 37.909 19.5444 38.3988C19.5059 38.3988 19.5059 38.4365 19.4674 38.4365C16.1586 40.0192 12.6573 40.5468 9.00217 39.9815C6.42433 39.6047 4.19276 38.4742 2.5768 36.4017C1.30712 34.7813 0.768466 32.8971 0.729991 30.8623C0.691515 27.9607 0.729991 25.0591 0.729991 22.1575C0.729991 22.0445 0.729991 21.9314 0.729991 21.8561C0.768466 21.5546 0.922367 21.4416 1.19169 21.5923C1.26864 21.63 1.3456 21.6677 1.42255 21.7053C4.11581 22.8735 6.84756 22.9489 9.5793 21.9314C9.88711 21.8184 10.118 21.6677 10.4258 21.5546C10.6951 21.4416 10.849 21.5546 10.849 21.8184C10.849 21.9691 10.849 22.1198 10.849 22.2706C10.849 24.3808 10.849 26.5287 10.849 28.639C10.849 29.1665 10.9259 29.6564 11.0414 30.1463C11.3492 31.2768 12.1187 31.9928 13.3114 32.1812C14.6196 32.3696 15.8123 31.9928 17.005 31.5782C17.2359 31.5029 17.3128 31.3145 17.3128 31.0507C17.3128 26.2273 17.3128 21.4416 17.3128 16.6181V16.4297C17.3128 15.6761 17.2359 15.6007 16.4664 15.6007C16.1586 15.6007 15.8892 15.6007 15.5814 15.6007C15.1582 15.563 15.0813 15.45 15.1197 15.0731C15.1967 14.5833 15.2736 14.1311 15.2736 13.6412C15.3121 12.36 15.1967 11.0788 14.735 9.87291C14.5426 9.38303 14.6965 9.2323 15.1967 9.2323C15.6584 9.2323 16.0816 9.2323 16.5433 9.2323C17.1589 9.19462 17.2744 9.11925 17.2744 8.55401C17.2744 5.87853 17.2744 3.20304 17.2744 0.565243C17.2744 0.339146 17.2359 0.150731 17.0435 0H27.7012C27.5088 0.150731 27.4703 0.376829 27.4703 0.602926C27.4703 3.20304 27.4703 5.80316 27.4703 8.40328C27.4703 9.04389 27.5857 9.11925 28.2398 9.15694C28.4707 9.15694 28.74 9.15694 28.9708 9.15694C31.087 9.15694 33.2031 9.15694 35.2808 9.15694C35.9733 9.15694 36.1272 9.26999 36.1272 9.98596C36.1272 11.6063 36.1272 13.189 36.1272 14.8094C36.1272 15.563 36.0118 15.6761 35.2423 15.6761C33.0107 15.6761 30.7407 15.6761 28.5091 15.6761C27.5088 15.6761 27.4703 15.7138 27.4703 16.6935C27.4703 19.482 27.4703 22.2706 27.4703 25.0591C27.4703 26.5287 27.4318 27.9607 27.5473 29.4303C27.7396 31.3898 29.1632 32.5203 31.1639 32.2565C32.2028 32.1058 33.1646 31.8043 34.165 31.5029C34.6267 31.3521 34.8191 31.4275 34.9345 31.8797C35.5116 33.8015 36.0503 35.7234 36.5889 37.6075C36.7044 37.909 36.5505 38.1727 36.2042 38.3612Z" fill="white"/>
<path d="M228.234 16.0143V40.0559C228.003 39.7921 227.695 39.8298 227.426 39.8298C225.425 39.8298 223.386 39.8298 221.385 39.8298C220.654 39.8298 220.539 39.7168 220.539 38.9631C220.539 38.2848 220.539 37.6065 220.539 36.9282C220.539 36.6645 220.654 36.3253 220.27 36.2123C219.962 36.1369 219.846 36.4761 219.693 36.6645C218.962 37.6819 218.038 38.5109 216.884 39.0762C214.729 40.1313 212.459 40.3197 210.151 39.8298C207.727 39.3023 205.995 37.9457 204.841 35.7601C204.072 34.2904 203.841 32.7078 203.802 31.0874C203.764 26.4147 203.802 21.7044 203.802 17.0317C203.802 16.3534 203.918 16.2027 204.649 16.2027C206.303 16.2027 207.958 16.2027 209.65 16.2027C209.958 16.2027 210.305 16.2027 210.612 16.2027C211.151 16.2027 211.305 16.3534 211.305 16.881C211.305 17.0317 211.305 17.2201 211.305 17.3708C211.305 20.9884 211.305 24.6436 211.305 28.2612C211.305 28.8641 211.343 29.4294 211.42 30.0323C211.613 31.6526 212.767 33.0846 214.268 33.4991C216.422 34.1397 218.692 33.1976 219.769 31.2381C220.308 30.2584 220.577 29.1656 220.577 28.0728C220.577 24.4552 220.577 20.8753 220.577 17.2578C220.577 17.0694 220.577 16.881 220.577 16.7302C220.616 16.4288 220.77 16.2403 221.116 16.2027C221.27 16.2027 221.462 16.2027 221.616 16.2027C223.579 16.2027 225.502 16.2027 227.465 16.2027C227.734 16.2403 228.042 16.278 228.234 16.0143Z" fill="white"/>
<path d="M169.06 26.3401C168.907 24.456 168.368 22.6849 167.406 21.0268C166.175 18.9543 164.443 17.4093 162.173 16.5426C160.403 15.8643 158.557 15.6382 156.671 15.8266C155.286 15.9396 154.017 16.3165 152.824 16.9948C151.939 17.5223 151.208 18.2383 150.4 19.0673V18.389C150.4 14.7715 150.4 11.1162 150.4 7.49867C150.4 7.15952 150.361 7.00879 149.938 7.00879C147.63 7.04647 145.36 7.00879 143.051 7.00879C142.436 7.00879 142.436 7.00879 142.436 7.61172V39.3407C142.436 39.9813 142.436 40.019 143.09 40.019H149.092C150.361 40.019 150.361 40.019 150.361 38.7754V37.042C150.554 37.042 150.631 37.1551 150.669 37.2304C151.323 38.0595 152.17 38.7001 153.132 39.19C155.209 40.2451 157.402 40.4335 159.672 40.132C163.943 39.5291 166.752 37.1551 168.252 33.2737C169.214 31.0505 169.291 28.7141 169.06 26.3401ZM160.134 31.7664C159.134 33.3114 157.71 34.1405 155.748 34.1028C153.363 34.2158 151.4 32.5955 150.746 30.2591C150.208 28.4503 150.246 26.6792 150.977 24.9458C151.747 23.1747 153.093 22.0066 155.171 21.7805C158.249 21.479 160.327 23.3632 160.942 25.8879C161.442 27.9605 161.327 29.9577 160.134 31.7664Z" fill="white"/>
<path d="M89.3781 25.0589C89.3781 29.8446 89.3781 34.5926 89.3781 39.3784C89.3781 40.019 89.3781 40.019 88.724 40.0567C86.4924 40.0567 84.2608 40.0567 82.0293 40.0567C81.5676 40.0567 81.4137 39.9436 81.4137 39.4537C81.4137 35.1956 81.4137 30.9751 81.4137 26.7169C81.4137 24.9081 80.3748 23.3255 78.8358 22.7979C76.8351 22.1196 74.5651 22.6095 73.2954 24.4936C72.7183 25.3603 72.3335 26.3024 72.295 27.3199C72.0642 31.3142 72.2566 35.3463 72.2181 39.3407C72.2181 40.0567 72.2181 40.0567 71.4871 40.0567C69.294 40.0567 67.1009 40.0567 64.9463 40.0567C64.4846 40.0567 64.3691 39.9059 64.3691 39.4914C64.3691 28.8649 64.3691 18.2383 64.3691 7.6494C64.3691 7.1972 64.4846 7.04647 64.9847 7.04647C67.2933 7.04647 69.6018 7.04647 71.9103 7.00879C72.1411 7.00879 72.2566 7.12184 72.2566 7.31025C72.2566 7.46098 72.2566 7.57403 72.2566 7.72476C72.2566 11.5307 72.2566 15.3367 72.2566 19.1427C72.2566 19.3311 72.2181 19.4818 72.3335 19.7079C72.7183 19.218 73.103 18.7658 73.4878 18.3136C74.8344 16.9194 76.4888 16.1657 78.3357 15.8266C79.9516 15.5251 81.5676 15.5251 83.1835 15.9773C86.1077 16.8063 87.9929 18.6905 88.9164 21.5167C89.2626 22.6849 89.3781 23.8907 89.3781 25.0589Z" fill="white"/>
<path d="M138.396 22.874C137.934 19.7463 136.126 17.6737 133.163 16.5432C130.508 15.5258 127.738 15.4881 124.929 15.865C122.121 16.2418 119.427 17.0708 116.85 18.239C116.542 18.3897 116.503 18.5028 116.619 18.8042C117.273 20.2362 117.888 21.7058 118.543 23.1754C118.658 23.4769 118.773 23.5523 119.12 23.4015C120.159 22.874 121.236 22.4595 122.39 22.1203C124.314 21.5927 126.238 21.2913 128.2 21.8188C129.777 22.2334 130.778 23.5146 130.778 25.0596C130.778 25.5118 130.624 25.6248 130.201 25.6248C128.277 25.6248 126.353 25.6248 124.429 25.6248C122.967 25.6248 121.505 25.7379 120.12 26.1901C118.696 26.6422 117.427 27.2829 116.465 28.451C115.08 30.1091 114.772 32.0686 115.08 34.1035C115.465 37.005 117.157 38.8892 119.928 39.8689C121.39 40.3965 122.929 40.4719 124.468 40.3588C126.315 40.2458 128.046 39.7559 129.546 38.6631C130.008 38.3239 130.393 37.8717 130.893 37.4572C130.893 38.2109 130.932 38.8892 130.893 39.5298C130.855 39.982 131.047 40.095 131.47 40.095C133.548 40.095 135.664 40.095 137.742 40.095C138.627 40.095 138.627 40.095 138.627 39.2283V25.4364C138.588 24.5697 138.55 23.703 138.396 22.874ZM130.662 32.1063C130.431 33.0483 129.777 33.7266 128.969 34.2165C127.469 35.1586 125.776 35.3847 124.083 34.8194C122.467 34.2919 121.813 32.1816 122.813 30.825C123.313 30.1468 124.083 29.9583 124.852 29.8453C125.891 29.6946 126.892 29.7699 127.738 29.7699C128.7 29.7699 129.47 29.7699 130.239 29.7699C130.624 29.7699 130.778 29.9207 130.739 30.2598C130.701 30.8627 130.816 31.5033 130.662 32.1063Z" fill="white"/>
<path d="M57.5211 38.3233C55.8282 39.4915 53.9045 40.0567 51.8268 40.2451C51.2112 40.3205 50.5956 40.3205 49.98 40.3205C46.902 40.3205 43.9394 39.7176 41.2076 38.2856C40.5536 37.9465 39.8995 37.532 39.2839 37.0798C39.0915 36.9291 39.053 36.816 39.1684 36.6276C39.8995 35.158 40.669 33.726 41.4 32.2564C41.5924 31.8419 41.8232 32.068 42.0156 32.2187C43.7085 33.3492 45.5169 34.1782 47.5176 34.6304C48.7488 34.8942 49.9415 35.0826 51.2112 34.8565C51.8268 34.7434 52.4424 34.5927 52.7502 33.9898C53.135 33.2738 52.8272 32.4448 51.9807 31.9926C50.8649 31.3897 49.6722 31.0128 48.441 30.6737C46.7481 30.1838 45.0167 29.7316 43.5161 28.8272C41.8617 27.8098 40.7075 26.4155 40.4381 24.4937C39.9764 21.4037 41.0153 18.5775 44.2472 16.9195C45.7477 16.1281 47.3637 15.789 49.0566 15.6759C52.4424 15.4498 55.6743 16.0527 58.7523 17.4847C59.214 17.6731 59.6373 17.9369 60.0605 18.1253C60.3298 18.2384 60.3683 18.3891 60.2144 18.6529C59.4064 20.1225 58.6369 21.5921 57.8674 23.0618C57.7135 23.3632 57.5596 23.3255 57.2903 23.1748C56.3284 22.6849 55.3281 22.1951 54.2892 21.8182C52.7117 21.253 51.1342 20.8762 49.4413 20.9515C48.5564 20.9892 47.9408 21.366 47.7099 22.0066C47.4406 22.7226 47.7869 23.4009 48.6334 23.8531C49.7107 24.4183 50.8649 24.7575 52.0577 25.0589C53.6351 25.4735 55.2126 25.888 56.6747 26.6416C58.7523 27.6968 60.1759 29.3171 60.4068 31.6911C60.6376 34.442 59.8297 36.703 57.5211 38.3233Z" fill="white"/>
<path d="M111.079 38.9261C109.848 39.5667 108.578 39.9812 107.193 40.2073C105.115 40.5088 103.038 40.5088 101.075 39.7174C98.6899 38.7377 97.2663 36.9666 96.8815 34.4795C96.6122 32.7084 96.6891 30.9373 96.6891 29.1662V27.5836C96.6891 26.0009 96.6891 24.4182 96.6891 22.8355C96.6891 22.3833 96.5352 22.2703 96.112 22.2703C95.3425 22.308 94.6115 22.2703 93.842 22.2703C93.4957 22.2703 93.3418 22.1949 93.3418 21.8181C93.3418 20.3861 93.3418 18.9919 93.3418 17.5599C93.3418 17.1831 93.4957 17.1077 93.842 17.1077C94.6115 17.1077 95.381 17.1077 96.1505 17.1077C96.5352 17.1077 96.6891 16.9947 96.6891 16.5802C96.6891 14.7714 96.6891 12.9249 96.6891 11.1161C96.6891 10.5132 96.7276 10.5132 97.3047 10.5132C99.5363 10.5132 101.806 10.5132 104.038 10.5132C104.461 10.5132 104.615 10.6263 104.615 11.0785C104.577 12.8872 104.615 14.7337 104.615 16.5425C104.615 16.9947 104.769 17.1454 105.231 17.1454C106.962 17.1077 108.693 17.1454 110.386 17.1454C111.002 17.1454 111.002 17.1454 111.002 17.7483C111.002 19.0672 111.002 20.3861 111.002 21.705C111.002 22.1195 110.886 22.2703 110.425 22.2703C108.693 22.2326 106.962 22.2703 105.192 22.2703C104.73 22.2703 104.577 22.421 104.577 22.8732C104.577 25.8878 104.577 28.9401 104.577 31.9548C104.577 33.0853 105.231 34.0273 106.116 34.1027C106.808 34.1781 107.462 34.1404 108.116 33.952C108.54 33.8012 109.001 33.6882 109.424 33.4998C109.694 33.3867 109.848 33.4621 109.925 33.7259C110.386 35.3085 110.81 36.8912 111.31 38.4739C111.464 38.7377 111.271 38.813 111.079 38.9261Z" fill="white"/>
<path d="M199.611 22.1575C199.611 22.5343 199.572 22.685 199.111 22.6474C197.302 22.5343 195.532 22.7981 194.032 23.8532C192.57 24.8707 191.762 26.2649 191.762 28.0737C191.762 31.842 191.762 35.6103 191.762 39.3786C191.762 40.0568 191.762 40.0945 191.031 40.0945C188.838 40.0945 186.645 40.0945 184.452 40.0945C183.99 40.0945 183.836 39.9815 183.836 39.5293C183.836 31.8797 183.836 24.2677 183.836 16.6181C183.836 16.2036 183.951 16.0152 184.413 16.0529C186.683 16.0529 188.953 16.0529 191.185 16.0529C191.762 16.0529 191.762 16.0905 191.762 16.6558C191.762 17.5225 191.762 18.3892 191.762 19.2936C191.762 19.4443 191.723 19.5951 191.839 19.7835C192.531 18.8037 193.262 17.9747 194.224 17.2964C195.532 16.392 196.994 15.9021 198.61 15.7891C198.649 15.7891 198.687 15.7891 198.764 15.7891C199.611 15.7137 199.611 15.7137 199.611 16.5427C199.611 18.3892 199.611 20.2733 199.611 22.1575Z" fill="white"/>
<path d="M5.65586 18.6902C8.77951 18.6902 11.3117 16.2102 11.3117 13.1509C11.3117 10.0915 8.77951 7.61148 5.65586 7.61148C2.53222 7.61148 0 10.0915 0 13.1509C0 16.2102 2.53222 18.6902 5.65586 18.6902Z" fill="#B0E707"/>
<path d="M175.215 41C177.616 41 179.563 39.0936 179.563 36.7418C179.563 34.3901 177.616 32.4837 175.215 32.4837C172.814 32.4837 170.867 34.3901 170.867 36.7418C170.867 39.0936 172.814 41 175.215 41Z" fill="#B0E707"/>
</svg>
