<svg width="48" height="48" viewBox="0 0 48 48" fill="none" xmlns="http://www.w3.org/2000/svg">
<path d="M31.4767 36.8333C31.0613 36.8333 30.6056 36.6987 30.1127 36.4304L18.9495 28.2951C18.8245 28.2043 18.748 28.0626 18.7398 27.9096C18.7325 27.7566 18.7945 27.6087 18.9103 27.5057L32.1329 15.7606C32.3447 15.5719 32.6712 15.5883 32.8624 15.7984C33.0536 16.0075 33.036 16.3298 32.8242 16.5185L20.0728 27.8463L30.6686 35.5737C30.9486 35.7216 31.4219 35.9092 31.7588 35.7552C32.1019 35.6002 32.2713 35.1055 32.354 34.7179L36.8748 13.6891C37.0505 12.9945 36.9658 12.4355 36.6527 12.1785C36.414 11.9826 36.0585 11.9684 35.6741 12.1397L9.10077 22.2558C8.28547 22.5792 8.0292 22.9117 8.03333 23.0218C8.03643 23.0943 8.2121 23.2942 8.736 23.4523L15.3235 25.482L22.5559 20.9778C22.7977 20.8289 23.1159 20.8993 23.2678 21.1369C23.4197 21.3746 23.3484 21.6898 23.1066 21.8397L15.6728 26.4694C15.5447 26.5489 15.3866 26.5693 15.2429 26.5255L8.43117 24.4264C7.22216 24.0612 7.01549 23.4166 7.00103 23.0647C6.98036 22.5822 7.26246 21.8846 8.7236 21.3073L35.2752 11.2013C35.9955 10.877 36.7684 10.9464 37.315 11.3962C37.9485 11.9174 38.1551 12.8374 37.8823 13.9196L33.3656 34.929C33.1755 35.8246 32.7808 36.4151 32.1907 36.6824C31.9686 36.7834 31.7309 36.8333 31.4767 36.8333Z" fill="white"/>
<path d="M31.4767 36.8333C31.0613 36.8333 30.6056 36.6987 30.1127 36.4304L23.1686 31.3724C22.9392 31.2051 22.8896 30.8848 23.0601 30.6594C23.2296 30.433 23.5541 30.384 23.7824 30.5523L30.6686 35.5737C30.9486 35.7216 31.4219 35.9092 31.7588 35.7552C32.1019 35.6002 32.2713 35.1055 32.354 34.7179L36.8748 13.6891C37.0505 12.9945 36.9658 12.4355 36.6527 12.1785C36.414 11.9826 36.0585 11.9684 35.6741 12.1397L9.10077 22.2558C8.28547 22.5792 8.0292 22.9117 8.03333 23.0218C8.03643 23.0943 8.2121 23.2942 8.736 23.4523L15.5498 25.5514C15.7131 25.6014 15.8402 25.7289 15.8908 25.89L18.2334 33.5001C18.2964 33.6704 18.345 33.8397 18.3874 33.9866C18.4205 34.1029 18.4618 34.2477 18.4897 34.2905C18.4856 34.2854 18.5682 34.3099 18.7883 34.3109C19.2502 34.3109 19.4259 34.1406 19.7772 33.803L21.4926 32.1567C21.6972 31.9589 22.0237 31.965 22.2231 32.1669C22.4215 32.3689 22.4174 32.6922 22.2128 32.8881L20.5264 34.5047C20.111 34.9056 19.6708 35.3299 18.7883 35.3299C17.7756 35.3299 17.571 34.8872 17.3923 34.263C17.3561 34.1365 17.3148 33.9907 17.2528 33.8224L14.9815 26.4449L8.43117 24.4264C7.22216 24.0612 7.01549 23.4166 7.00103 23.0647C6.98036 22.5822 7.26246 21.8846 8.7236 21.3073L35.2752 11.2013C35.9955 10.877 36.7684 10.9464 37.315 11.3962C37.9485 11.9174 38.1551 12.8374 37.8823 13.9196L33.3656 34.929C33.1755 35.8246 32.7808 36.4151 32.1907 36.6824C31.9686 36.7834 31.7309 36.8333 31.4767 36.8333Z" fill="white"/>
<path d="M25.0833 20.4722C25.0833 20.9458 24.8896 21.3333 24.6528 21.3333C24.416 21.3333 24.2222 20.9458 24.2222 20.4722C24.2222 19.9986 24.416 19.6111 24.6528 19.6111C24.8896 19.6111 25.0833 19.9986 25.0833 20.4722Z" fill="white"/>
<circle cx="24" cy="24" r="23.5" stroke="#C6FF00"/>
</svg>
