<svg width="48" height="48" viewBox="0 0 48 48" fill="none" xmlns="http://www.w3.org/2000/svg">
<path d="M34.0373 13.968C31.4647 11.4097 28.0404 10 24.4003 10C20.7601 10 17.3358 11.4097 14.7574 13.968C12.1848 16.5263 10.7672 19.9316 10.7672 23.5515C10.7672 26.3651 11.6189 29.0452 13.2348 31.3309L10.0555 38.1762C9.95053 38.3967 9.99719 38.6577 10.1722 38.8318C10.283 38.942 10.4347 39 10.5864 39C10.6681 39 10.7497 38.9826 10.8314 38.9478L18.135 35.5947C20.0601 36.5867 22.2185 37.1088 24.4061 37.1088C28.0463 37.1088 31.4706 35.6991 34.0432 33.1408C36.6158 30.5825 38.0333 27.1772 38.0333 23.5573C38.0333 19.9374 36.6158 16.5321 34.0373 13.968ZM24.4003 35.9544C22.3119 35.9544 20.2468 35.4323 18.4325 34.4403C18.2692 34.3533 18.0767 34.3475 17.9075 34.4229L11.7823 37.2364L14.4424 31.5165C14.5299 31.3251 14.5065 31.0988 14.384 30.9306C12.7856 28.7842 11.9398 26.2374 11.9398 23.5631C11.9339 16.7235 17.5225 11.1602 24.4003 11.1602C31.2722 11.1602 36.8666 16.7235 36.8666 23.5573C36.8666 30.3911 31.2722 35.9544 24.4003 35.9544Z" fill="white"/>
<path d="M29.6666 25.3703C29.5742 25.3539 29.4818 25.3374 29.3836 25.3265C28.9157 25.2717 28.3843 25.2115 27.824 25.4415C27.4833 25.5783 27.1136 25.8411 26.7901 26.1642C26.201 25.9123 25.6869 25.6331 25.2537 25.3429C24.7512 25.0035 24.3526 24.6421 24.0638 24.2644C24.0523 24.2479 24.0349 24.2315 24.0234 24.2151C23.3996 23.569 22.9317 22.5781 22.6256 21.2696C23.0241 21.0396 23.3707 20.7549 23.5844 20.4648C23.931 19.9939 23.983 19.4902 24.0234 19.0413C24.0292 18.9537 24.0349 18.8606 24.0349 18.773C24.0349 17.6616 23.5786 16.6925 22.822 16.1888C22.2386 15.8001 21.4704 15.8001 20.9159 15.8001H20.8985C20.4422 15.8001 19.9975 15.8932 19.5816 16.0739C19.0791 16.2929 18.6459 16.6323 18.334 17.0594C18.0163 17.4864 17.8199 17.9846 17.7737 18.5047C17.6524 19.7475 17.8026 20.963 18.2127 22.1237C18.6459 23.3446 19.3852 25.1513 20.7772 26.7062C21.7881 27.949 23.1685 29.0549 24.988 30.0787C26.1028 30.7029 27.3273 31.0971 28.6269 31.2449C28.754 31.2613 28.8811 31.2668 29.0081 31.2668C29.4298 31.2668 29.8514 31.1847 30.2384 31.0259C30.7467 30.8233 31.1857 30.4894 31.515 30.0733C31.7864 29.7338 31.9828 29.3287 32.0752 28.9071L32.081 28.8907C32.1965 28.376 32.3583 27.6643 32.0752 27.0401C31.7113 26.2244 30.8103 25.6002 29.6666 25.3703ZM30.9489 28.6553L30.9431 28.6717C30.8854 28.9345 30.7641 29.1918 30.5908 29.4053C30.3828 29.6681 30.0998 29.8762 29.7821 30.0076C29.4645 30.139 29.1121 30.1828 28.7655 30.1444C27.6219 30.013 26.5475 29.6681 25.5772 29.1261C23.879 28.1735 22.6083 27.1551 21.6841 26.0163C21.6783 26.0109 21.6725 25.9999 21.6668 25.9944C20.396 24.5819 19.7144 22.9011 19.3101 21.7623C18.9462 20.744 18.8192 19.6818 18.9231 18.5923C18.952 18.2638 19.0791 17.9463 19.2755 17.678C19.4776 17.4098 19.7491 17.1962 20.0668 17.0539C20.3325 16.9389 20.6097 16.8787 20.8985 16.8787H20.9216C20.9274 16.8787 20.9332 16.8787 20.939 16.8787C21.3606 16.8787 21.8805 16.8842 22.1577 17.0703C22.6949 17.4262 22.8797 18.2036 22.8797 18.7621C22.8797 18.8168 22.8797 18.877 22.874 18.9318C22.8335 19.3424 22.8046 19.5997 22.6371 19.8187C22.4696 20.0432 22.1115 20.3005 21.7245 20.4702C21.4819 20.5743 21.3491 20.8206 21.4011 21.067C21.7361 22.7588 22.3195 24.0508 23.1397 24.9159C23.4978 25.3867 23.983 25.8247 24.5779 26.2244C25.1728 26.6241 25.8948 26.9963 26.7266 27.3248C26.9692 27.4234 27.2522 27.3467 27.4082 27.1496C27.6623 26.8266 27.9973 26.5529 28.2688 26.4434C28.5287 26.3394 28.806 26.3613 29.2334 26.4105C29.2969 26.416 29.3547 26.427 29.4125 26.4379C29.9843 26.5529 30.7467 26.8923 31.0067 27.4617C31.1511 27.7683 31.0413 28.2611 30.9489 28.6553Z" fill="white"/>
<circle cx="24" cy="24" r="23.5" stroke="#C6FF00"/>
</svg>
